HIERARCHY
ROOT joint_Root
{
	OFFSET 0.0 0.0 0.0
	CHANNELS 6 Xposition Yposition Zposition Zrotation Xrotation Yrotation 
	JOINT Hips
	{
		OFFSET -17.1583 93.1646 452.98
		CHANNELS 6 Xposition Yposition Zposition Zrotation Xrotation Yrotation 
		JOINT Spine
		{
			OFFSET 15.7357 0.0 0.0
			CHANNELS 6 Xposition Yposition Zposition Zrotation Xrotation Yrotation 
			JOINT Chest
			{
				OFFSET 8.98455 -0.406207 0.0
				CHANNELS 6 Xposition Yposition Zposition Zrotation Xrotation Yrotation 
				JOINT Neck
				{
					OFFSET 16.3773 0.0 0.0
					CHANNELS 6 Xposition Yposition Zposition Zrotation Xrotation Yrotation 
					JOINT Head
					{
						OFFSET 6.45672 0.0 0.0
						CHANNELS 6 Xposition Yposition Zposition Zrotation Xrotation Yrotation 
						End Site
						{
							OFFSET 0.0 0.0 0.0
						}
					}
				}
				JOINT Shoulder_L
				{
					OFFSET 12.9942 -0.242716 4.98039
					CHANNELS 6 Xposition Yposition Zposition Zrotation Xrotation Yrotation 
					JOINT UpperArm_L
					{
						OFFSET 5.34809 0.0 0.0
						CHANNELS 6 Xposition Yposition Zposition Zrotation Xrotation Yrotation 
						JOINT LowerArm_L
						{
							OFFSET 24.3286 1.87007e-05 0.0
							CHANNELS 6 Xposition Yposition Zposition Zrotation Xrotation Yrotation 
							JOINT Hand_L
							{
								OFFSET 22.2916 0.0 0.0
								CHANNELS 6 Xposition Yposition Zposition Zrotation Xrotation Yrotation 
								End Site
								{
									OFFSET 0.0 0.0 0.0
								}
							}
						}
					}
				}
				JOINT Shoulder_R
				{
					OFFSET 12.9945 -0.242716 -4.98039
					CHANNELS 6 Xposition Yposition Zposition Zrotation Xrotation Yrotation 
					JOINT UpperArm_R
					{
						OFFSET -5.34813 0.0 0.0
						CHANNELS 6 Xposition Yposition Zposition Zrotation Xrotation Yrotation 
						JOINT LowerArm_R
						{
							OFFSET -24.3289 0.000322201 0.0
							CHANNELS 6 Xposition Yposition Zposition Zrotation Xrotation Yrotation 
							JOINT Hand_R
							{
								OFFSET -22.2915 -0.000108084 0.0
								CHANNELS 6 Xposition Yposition Zposition Zrotation Xrotation Yrotation 
								End Site
								{
									OFFSET 0.0 0.0 0.0
								}
							}
						}
					}
				}
			}
		}
		JOINT UpperLeg_L
		{
			OFFSET -2.19248 -6.46944 0.0
			CHANNELS 6 Xposition Yposition Zposition Zrotation Xrotation Yrotation 
			JOINT LowerLeg_L
			{
				OFFSET 39.0811 0.0 -1.23785e-05
				CHANNELS 6 Xposition Yposition Zposition Zrotation Xrotation Yrotation 
				JOINT Foot_L
				{
					OFFSET 40.9854 0.0 -1.26872e-05
					CHANNELS 6 Xposition Yposition Zposition Zrotation Xrotation Yrotation 
					JOINT Toes_L
					{
						OFFSET 11.7543 0.0 0.0
						CHANNELS 6 Xposition Yposition Zposition Zrotation Xrotation Yrotation 
						End Site
						{
							OFFSET 0.0 0.0 0.0
						}
					}
				}
			}
		}
		JOINT UpperLeg_R
		{
			OFFSET -2.19251 6.46944 0.0
			CHANNELS 6 Xposition Yposition Zposition Zrotation Xrotation Yrotation 
			JOINT LowerLeg_R
			{
				OFFSET -39.0811 -0.00228153 -0.0401928
				CHANNELS 6 Xposition Yposition Zposition Zrotation Xrotation Yrotation 
				JOINT Foot_R
				{
					OFFSET -40.9854 0.0 0.0
					CHANNELS 6 Xposition Yposition Zposition Zrotation Xrotation Yrotation 
					JOINT Toes_R
					{
						OFFSET -11.7543 0.0 0.0
						CHANNELS 6 Xposition Yposition Zposition Zrotation Xrotation Yrotation 
						End Site
						{
							OFFSET 0.0 0.0 0.0
						}
					}
				}
			}
		}
	}
}
MOTION
Frames:	4
Frame Time:	0.0333333
0.000000 0.000000 0.000000 0.000000 0.000000 -0.000000 1.350430 87.906300 -40.231200 89.706400 -2.414810 -11.339900 15.735700 0.000005 -0.000001 106.806000 83.371500 -105.311000 8.984550 -0.406207 -0.000000 4.885650 3.787980 2.826300 16.377300 -0.000001 -0.000001 -7.334140 2.990880 -1.850170 6.456720 -0.000001 -0.000000 -15.277600 2.041060 -5.851320 12.994200 -0.242716 4.980390 -92.989800 8.153280 -69.782400 5.348090 -0.000007 -0.000001 -42.735100 -16.417900 17.805500 24.328600 0.000019 0.000005 -0.000162 38.633600 -0.000005 22.291600 -0.000001 0.000005 -1.594620 4.458740 17.288500 12.994500 -0.242716 -4.980390 88.968800 3.770150 -74.693700 -5.348130 -0.000001 -0.000004 -54.311900 3.544320 -9.608770 -24.328900 0.000322 -0.000009 -6.289960 -5.636740 -48.223000 -22.291500 -0.000108 -0.000004 10.127000 5.552360 -8.823610 -2.192480 -6.469440 -0.000000 179.292000 -2.216240 -55.435600 39.081100 -0.000007 -0.000012 -0.053535 -0.017483 108.100000 40.985400 -0.000006 -0.000013 -5.343020 -0.217808 -54.227800 11.754300 -0.000000 0.000003 0.002435 0.071605 -13.672600 -2.192510 6.469440 -0.000001 179.378000 8.252080 171.821000 -39.081100 -0.002282 -0.040193 -0.078699 0.110043 36.687200 -40.985400 0.000008 0.000006 -8.626540 6.273650 -78.574000 -11.754300 -0.000006 -0.000006 -0.003207 -0.042921 -18.318700
0.000000 0.000000 0.000000 0.000000 0.000000 -0.000000 2.397240 91.120700 -29.865300 93.006600 -4.766640 -15.210400 15.735700 0.000005 -0.000001 123.215000 84.574500 -123.618000 8.984550 -0.406207 -0.000000 1.341640 5.963730 -0.877288 16.377300 -0.000001 -0.000001 -6.981100 2.228120 -1.164200 6.456720 -0.000001 -0.000000 -13.316900 -0.165737 -4.672840 12.994200 -0.242716 4.980390 -92.120700 5.712500 -69.591800 5.348090 -0.000007 -0.000001 -39.444600 -15.811900 24.153500 24.328600 0.000019 0.000005 0.000055 40.516900 -0.000005 22.291600 -0.000001 0.000005 -0.140788 4.071310 23.178400 12.994500 -0.242716 -4.980390 89.483100 2.019230 -75.641300 -5.348130 -0.000001 -0.000004 -58.538600 2.102200 -9.055800 -24.328900 0.000322 -0.000009 -10.418000 -5.818770 -61.109000 -22.291500 -0.000108 -0.000004 8.360270 5.591900 -10.864400 -2.192480 -6.469440 -0.000000 174.585000 -0.783128 -60.869100 39.081100 -0.000007 -0.000012 -0.038742 -0.002655 93.934900 40.985400 -0.000006 -0.000013 -5.515130 -0.832115 -61.180100 11.754300 -0.000000 0.000003 0.002478 0.078811 -13.380500 -2.192510 6.469440 -0.000001 173.616000 10.580500 176.967000 -39.081100 -0.002282 -0.040193 -0.018427 0.045761 25.409100 -40.985400 0.000008 0.000006 -7.774300 7.971110 -58.835700 -11.754300 -0.000006 -0.000006 -0.050281 -0.298763 -28.879400
0.000000 0.000000 0.000000 0.000000 0.000000 -0.000000 2.678900 93.760900 -19.383400 92.976700 -4.882620 -17.060200 15.735700 0.000005 -0.000001 137.009000 84.775500 -137.906000 8.984550 -0.406207 -0.000000 -0.577657 7.706740 -1.756750 16.377300 -0.000001 -0.000001 -6.486740 1.531320 -1.185460 6.456720 -0.000001 -0.000000 -12.501000 -2.730330 -3.358120 12.994200 -0.242716 4.980390 -91.846600 4.770640 -68.811900 5.348090 -0.000007 -0.000001 -35.428400 -16.434200 26.764800 24.328600 0.000019 0.000005 0.000116 40.022600 -0.000005 22.291600 -0.000001 0.000005 5.419310 3.954030 24.854000 12.994500 -0.242716 -4.980390 89.534500 1.871660 -76.031400 -5.348130 -0.000001 -0.000004 -60.423200 1.631870 -9.011700 -24.328900 0.000322 -0.000009 -12.217900 -4.485660 -70.138000 -22.291500 -0.000108 -0.000004 8.432510 5.586400 -10.544100 -2.192480 -6.469440 -0.000000 175.317000 0.346041 -60.934200 39.081100 -0.000007 -0.000012 -0.006298 0.001571 76.056600 40.985400 -0.000006 -0.000013 -6.351560 1.815170 -65.072200 11.754300 -0.000000 0.000003 0.002421 0.070144 -13.731900 -2.192510 6.469440 -0.000001 172.528000 12.825000 -177.948000 -39.081100 -0.002282 -0.040193 0.027869 -0.080740 16.907600 -40.985400 0.000008 0.000006 -5.227280 7.862730 -37.967400 -11.754300 -0.000006 -0.000006 -0.012878 -0.124014 -21.629900
0.000000 0.000000 0.000000 0.000000 0.000000 -0.000000 2.229120 95.130100 -8.345120 90.227300 -3.219110 -15.014300 15.735700 0.000005 -0.000001 138.500000 84.110100 -138.604000 8.984550 -0.406207 -0.000000 0.055683 8.827200 -0.213290 16.377300 -0.000001 -0.000001 -5.826230 0.869861 -1.117230 6.456720 -0.000001 -0.000000 -12.672800 -4.797310 -2.732560 12.994200 -0.242716 4.980390 -92.223000 5.465240 -67.826700 5.348090 -0.000007 -0.000001 -32.740400 -15.295100 26.434500 24.328600 0.000019 0.000005 0.000090 37.342200 -0.000005 22.291600 -0.000001 0.000005 9.933860 3.850360 26.314000 12.994500 -0.242716 -4.980390 89.368000 2.529600 -75.967100 -5.348130 -0.000001 -0.000004 -60.365000 2.781870 -9.034730 -24.328900 0.000322 -0.000009 -11.676600 -3.346780 -74.225800 -22.291500 -0.000108 -0.000004 11.572000 5.633380 -13.455200 -2.192480 -6.469440 -0.000000 179.386000 0.486923 -54.034700 39.081100 -0.000007 -0.000012 -0.031379 0.021249 55.900500 40.985400 -0.000006 -0.000013 -7.543180 6.437650 -68.355800 11.754300 -0.000000 0.000003 0.002436 0.071729 -13.667600 -2.192510 6.469440 -0.000001 174.906000 12.602300 -171.935000 -39.081100 -0.002282 -0.040193 0.054709 -0.167834 17.021900 -40.985400 0.000008 0.000006 -3.142220 2.592520 -25.609900 -11.754300 -0.000006 -0.000006 -0.001025 0.183432 -9.132370
